/* XPM */
static char *Q3Vyc29yTGVmdA__[] = {
/* columns rows colors chars-per-pixel */
"16 16 2 1 ",
"  c black",
". c None",
/* pixels */
"................",
"......     .....",
"..... .....  ...",
".....  ......   ",
".... ....    .. ",
".      ....... .",
" ........    .. ",
" .............. ",
".      ..    .. ",
".... .......... ",
".... .........  ",
".....    .... ..",
"......  .... ...",
"...... ...  ....",
".......   ......",
"................"
};
