/* XPM */
static char *Q3Vyc29yUmlnaHQ_[] = {
/* columns rows colors chars-per-pixel */
"16 16 2 1 ",
"  c black",
". c None",
/* pixels */
"................",
"......   .......",
"....  ... ......",
"... ....  ......",
".. ....    .....",
"  ......... ....",
" .......... ....",
" ..    ..      .",
" .............. ",
" ..    ........ ",
". .......      .",
" ..    .... ....",
"   ......  .....",
"...  ..... .....",
".....     ......",
"................"
};
